<svg xmlns="http://www.w3.org/2000/svg" xmlns:xlink="http://www.w3.org/1999/xlink" version="1.1" id="Layer_1" x="0px" y="0px" width="100%" viewBox="0 0 625 412" enable-background="new 0 0 625 412" xml:space="preserve">

<style type="text/css">
    <![CDATA[
    #svg_x5F_chat{
        animation: svgchat;
        animation-duration: 3s;
        animation-iteration-count: infinite;
        animation-direction: normal;
        animation-timing-function: ease-in-out;
    }

    #svg_x5F_talk,#svg_x5F_woman{
        animation: svgmain;
        animation-duration: 4s;
        animation-iteration-count: infinite;
        animation-direction: normal;
        animation-timing-function: ease-in-out;
    }

    #svg_x5F_message{
        animation: svgboom;
        animation-duration: 4s;
        animation-iteration-count: infinite;
        animation-direction: normal;
        animation-timing-function: ease-in-out;
    }

    #svg_x5F_man,#svg_x5F_movie{
        animation: svgmain_man;
        animation-duration: 4s;
        animation-iteration-count: infinite;
        animation-direction: normal;
        animation-timing-function: ease-in-out;
    }
    #gradation02{
        background: #a0bcc1; /* Old browsers */
        background: -moz-linear-gradient(-45deg,  #a0bcc1 1%, #92bcc4 43%, #3f8a97 100%); /* FF3.6-15 */
        background: -webkit-linear-gradient(-45deg,  #a0bcc1 1%,#92bcc4 43%,#3f8a97 100%); /* Chrome10-25,Safari5.1-6 */
        background: linear-gradient(135deg,  #a0bcc1 1%,#92bcc4 43%,#3f8a97 100%); /* W3C, IE10+, FF16+, Chrome26+, Opera12+, Safari7+ */
        filter: progid:DXImageTransform.Microsoft.gradient( startColorstr='#a0bcc1', endColorstr='#3f8a97',GradientType=1 ); /* IE6-9 fallback on horizontal gradient */
    }

    #svg_x5F_emo{
        animation: svgboom;
        animation-duration: 6s;
        animation-iteration-count: infinite;
        animation-direction: normal;
        animation-timing-function: ease-in-out;
    }

    #human_shadow{
        opacity: .2;
    }

    #svg_x5F_whand{
        animation: svgshake;
        animation-duration: 2s;
        animation-iteration-count: infinite;
        animation-direction: normal;
        animation-timing-function: ease-in-out;
    }
    #woman_arm{
        animation: svgupdown;
        animation-duration: 2s;
        animation-iteration-count: infinite;
        animation-direction: normal;
        animation-timing-function: ease-in-out;
    }
    #svg_x5F_mfoot{
        animation: svgshakefoot;
        animation-duration: 2s;
        animation-iteration-count: infinite;
        animation-direction: normal;
        animation-timing-function: ease-in-out;
    }
    /* #svg_content{
        animation: svgopacity;
        animation-duration: 10s;
        animation-iteration-count: infinite;
        animation-direction: normal;
        animation-timing-function: ease-in-out;
    } */

    #svg_x5F_mhead{
        animation: svgmoving;
        animation-duration: 2s;
        animation-iteration-count: infinite;
        animation-direction: normal;
        animation-timing-function: ease-in-out;
    }
    #svg_x5F_music{
        animation: svgfill;
        animation-duration: 4s;
        animation-iteration-count: infinite;
        animation-direction: normal;
        animation-timing-function: ease-in-out;
    }
    #svg_x5F_thumb{
        animation: svgrolling;
        animation-duration: 2s;
        animation-iteration-count: infinite;
        animation-direction: normal;
        animation-timing-function: ease-in-out;
    }
    #svg_x5F_thumb > path{
        animation: svgfill02;
        animation-duration: 2s;
        animation-iteration-count: infinite;
        animation-direction: normal;
        animation-timing-function: ease-in-out;
    }

    @keyframes svgchat{
        0% { transform: scale(1) translateY(0px); }
        25% { transform: scale(1.01) translateY(5px); }
        50% { transform: scale(0.99) translateY(0px); }
        75% { transform: scale(1.01) translateY(-5px); }
        100% { transform: scale(1) translateY(0px); }
    }

    @keyframes svgmain{
        0% { transform: translateY(0px); }
        50% { transform: translateY(15px) translateX(3px); }
        100% { transform: translateY(0px); }
    }

    @keyframes svgmain_man{
        0% { transform: translateY(0px); }
        50% { transform: translateY(-15px) translateX(-3px); }
        100% { transform: translateY(0px); }
    }

    @keyframes svgboom{
        0% { transform: scale(1);
            opacity: 0;
        }
        5% { transform: scale(1.01); 
            opacity: 1;
        }
        10% { transform: scale(1.0);
        }
        90% { transform: scale(1.0);
            
        }
        95% { transform: scale(1.01);
            opacity: 1;
        }
        100% { transform: scale(1);
            opacity: 0;
        }
    }

    @keyframes svgshake{
        0% { transform: rotate(0deg); }
        50% { transform: rotate(-2deg) translateX(-2px); }
        100% { transform: rotate(0deg); }
    }

    @keyframes svgupdown{
        0% { transform: translateY(0px); }
        50% { transform: translateY(-3px); }
        100% { transform: translateY(0px); }
    }

    @keyframes svgshakefoot{
        0% { transform: rotateY(0deg); }
        50% { transform: rotateY(-5deg); }
        100% { transform: rotateY(0deg); }
    }

    @keyframes svgopacity{
        0% { fill: #fff; }
        20% { fill: #00ffff; }
        40% { fill: #ffd700; }
        60% { fill : #98fb98; }
        80% { fill : #dda0dd; }
        0% { fill: #fff; }
    }

    @keyframes svgmoving{
        0% { transform: translateY(1px); }
        50% { transform: translateY(-2px); }
        100% { transform: translateY(1px); }
    }
    @keyframes svgfill{
        0% { fill: #C1C1C1; transform: roteate(0deg); }
        50% { fill: #5f9ea0; transform: rotate(-4deg);}
        100% { fill: #C1C1C1; transform: rotate(0deg);}
    }
    @keyframes svgrolling{
        0% { transform: roteate(0deg); }
        50% { transform: rotate(-2deg); }
        100% { transform: rotate(0deg); }
    }
    @keyframes svgfill02{
        0% { fill: #b0cfe2; }
        50% { fill: #8eaadd; }
        100% { fill: #b0cfe2; }
    }
    ]]>
</style>

<g id="svg_x5F_chat">
	<path fill="#C1DBD8" d="M144.515,22.88c-0.014-0.391-0.055-0.776-0.11-1.158c-0.006-0.04-0.005-0.082-0.012-0.121   c-0.02-0.127-0.05-0.25-0.074-0.376c-0.024-0.127-0.047-0.254-0.075-0.38c-0.042-0.185-0.094-0.366-0.146-0.547   c-0.032-0.114-0.061-0.229-0.097-0.342c-0.065-0.205-0.142-0.406-0.219-0.606c-0.033-0.084-0.06-0.171-0.094-0.254   c-0.116-0.28-0.243-0.555-0.38-0.824c-0.03-0.059-0.065-0.114-0.096-0.171c-0.112-0.209-0.226-0.416-0.35-0.617   c-0.058-0.094-0.123-0.184-0.184-0.276c-0.104-0.159-0.209-0.317-0.322-0.47c-0.072-0.099-0.149-0.192-0.225-0.288   c-0.11-0.14-0.22-0.279-0.336-0.413c-0.083-0.095-0.169-0.187-0.255-0.279c-0.117-0.126-0.235-0.251-0.358-0.372   c-0.091-0.089-0.185-0.175-0.278-0.261c-0.125-0.114-0.253-0.226-0.383-0.334c-0.099-0.082-0.198-0.161-0.298-0.238   c-0.134-0.104-0.271-0.203-0.41-0.299c-0.103-0.072-0.206-0.143-0.312-0.21c-0.144-0.093-0.292-0.18-0.44-0.265   c-0.106-0.061-0.211-0.123-0.319-0.179c-0.156-0.083-0.315-0.156-0.475-0.23c-0.106-0.048-0.21-0.1-0.318-0.145   c-0.175-0.073-0.354-0.136-0.533-0.198c-0.097-0.034-0.191-0.072-0.289-0.102c-0.227-0.071-0.458-0.129-0.689-0.182   c-0.053-0.012-0.105-0.029-0.159-0.041c-0.278-0.058-0.56-0.104-0.845-0.136c-0.017-0.002-0.033-0.004-0.05-0.005   c-0.116-0.012-0.232-0.022-0.349-0.03L40.787,5.92c-1.623-0.109-3.132,0.239-4.427,0.94l-8.853,4.795   c1.295-0.701,2.804-1.049,4.427-0.94l94.249,6.61c0.117,0.008,0.233,0.018,0.349,0.03c0.302,0.032,0.602,0.08,0.896,0.141   c0.049,0.01,0.097,0.026,0.146,0.038c0.237,0.054,0.472,0.113,0.703,0.185c0.094,0.029,0.187,0.066,0.28,0.099   c0.182,0.063,0.364,0.127,0.542,0.201c0.105,0.044,0.208,0.095,0.312,0.143c0.162,0.074,0.323,0.149,0.48,0.232   c0.106,0.056,0.21,0.117,0.315,0.177c0.149,0.086,0.298,0.174,0.444,0.268c0.104,0.067,0.207,0.137,0.308,0.208   c0.14,0.097,0.278,0.198,0.413,0.302c0.1,0.077,0.198,0.156,0.295,0.236c0.131,0.109,0.259,0.221,0.385,0.336   c0.093,0.085,0.186,0.171,0.277,0.26c0.123,0.121,0.242,0.246,0.359,0.373c0.085,0.092,0.171,0.183,0.254,0.278   c0.116,0.134,0.227,0.273,0.336,0.413c0.075,0.096,0.153,0.189,0.225,0.288c0.112,0.152,0.216,0.311,0.321,0.469   c0.061,0.093,0.126,0.183,0.185,0.278c0.123,0.198,0.235,0.403,0.346,0.609c0.032,0.061,0.069,0.118,0.101,0.179   c0.137,0.268,0.263,0.543,0.379,0.823c0.036,0.086,0.064,0.176,0.098,0.263c0.076,0.197,0.15,0.395,0.215,0.596   c0.037,0.115,0.066,0.233,0.099,0.35c0.051,0.179,0.102,0.358,0.144,0.54c0.029,0.127,0.051,0.256,0.076,0.385   c0.031,0.164,0.061,0.327,0.085,0.493c0.055,0.382,0.097,0.767,0.11,1.159l1.455,28.282c0.122,3.658-1.66,6.716-4.398,8.199   c2.951-1.598,5.902-3.196,8.853-4.795c2.738-1.483,4.52-4.541,4.398-8.199L144.515,22.88z"/>
	<g>
		<path fill="#D6F2EF" d="M135.662,27.675c-0.183-5.263-4.234-9.805-9.131-10.32c-0.116-0.012-0.232-0.022-0.349-0.03l-94.249-6.61    c-5.051-0.339-8.999,3.748-8.82,9.134l1.455,28.291c0.183,5.254,4.235,9.796,9.131,10.311c0.116,0.012,0.232,0.022,0.349,0.03    l68.267,4.794c9.179,4.514,23.068,10.039,26.221,11.421c-1.475-1.244-3.652-5.85-5.393-9.958l5.154,0.362    c5.05,0.33,8.999-3.756,8.819-9.143L135.662,27.675z"/>
		<path fill="#D6F2EF" d="M128.537,74.696c0.188,0.158,0.363,0.262,0.526,0.304C129.35,75.073,129.138,74.96,128.537,74.696z"/>
	</g>
	<path fill-rule="evenodd" clip-rule="evenodd" fill="#BBBCBC" d="M41.657,45.462c-1.134-0.279-2.271-0.554-3.403-0.84   c-0.27-0.067-0.545-0.143-0.796-0.27c-0.473-0.234-0.987-0.551-0.797-1.271c0.19-0.728,0.741-0.515,1.198-0.381   c2.743,0.805,5.514,0.734,8.315,0.589c3.109-0.164,6.23-0.086,9.349-0.051c3.616,0.037,7.234,0.151,10.854,0.211   c0.798,0.012,1.494,0.097,1.734,1.228c0.044,0.204,0.354,0.365,0.564,0.477c1.649,0.867,3.404,0.717,5.144,0.714   c2.398,0,4.799-0.02,7.2-0.063c0.405-0.007,0.81-0.157,1.214-0.252c0.75-0.173,1.398-0.128,2.104,0.449   c0.477,0.393,1.295,0.509,1.886,0.354c1.849-0.489,3.534-0.06,5.256,0.712c0.851,0.381,1.838,0.348,2.766,0.48   c0.52,0.072,1.073-0.01,1.554,0.181c0.326,0.127,0.553,0.612,0.823,0.936c-0.297,0.282-0.57,0.621-0.902,0.829   c-0.199,0.124-0.489,0.051-0.736,0.051c-1.851,0.018-3.68,0.062-5.413-1.036c-0.602-0.381-1.446-0.351-2.172-0.31   c-1.52,0.089-2.98,0.061-4.5-0.383c-1.217-0.356-2.576-0.021-3.869-0.034c-3.145-0.029-6.297,0.028-9.434-0.192   c-1.094-0.078-2.151-0.871-3.229-1.334c-0.226-0.096-0.458-0.236-0.691-0.245c-5.492-0.2-10.987-0.415-16.482-0.552   c-1.709-0.042-3.424,0.161-5.135,0.178c-0.794,0.006-1.59-0.18-2.388-0.278C41.667,45.391,41.661,45.426,41.657,45.462z"/>
	<path fill-rule="evenodd" clip-rule="evenodd" fill="#BBBCBC" d="M34.936,27.96c2.914,0.119,5.465,0.194,8.011,0.33   c4.598,0.253,9.199,0.699,13.799,0.766c4.276,0.06,8.559-0.354,12.842-0.409c4.44-0.057,8.889,0.035,13.331,0.162   c0.484,0.016,0.952,0.708,1.426,1.086c0.444,0.355,0.849,0.935,1.335,1.017c0.889,0.148,1.825,0.045,2.736-0.028   c1.517-0.117,3.028-0.42,4.541-0.388c0.689,0.016,1.367,0.654,2.063,0.986c0.438,0.209,0.912,0.56,1.344,0.523   c3.311-0.281,6.615-0.644,9.919-0.976c0.956-0.091,1.917-0.217,2.875-0.215c1.489,0.008,2.163,0.7,2.078,2.236   c-0.047,0.887,0.397,0.977,1.001,1.02c2.58,0.174,5.098-0.133,7.612-0.79c1.288-0.338,2.681-0.295,4.025-0.277   c0.335,0.004,0.664,0.587,0.993,0.902c-0.292,0.305-0.528,0.775-0.876,0.887c-3.95,1.265-7.938,2.344-12.132,2.144   c-1.737-0.08-3.324-0.366-3.646-2.646c-0.03-0.211-0.62-0.508-0.936-0.491c-2.355,0.125-4.704,0.302-7.055,0.502   c-1.394,0.118-2.781,0.35-4.179,0.449c-1.148,0.079-2.221-0.097-2.972-1.246c-0.181-0.274-0.778-0.396-1.159-0.357   c-1.235,0.125-2.453,0.468-3.688,0.513c-1.343,0.052-2.695-0.1-4.041-0.234c-0.325-0.033-0.782-0.265-0.916-0.545   c-1.017-2.081-2.937-1.504-4.527-1.678c-1.984-0.218-3.993-0.185-5.995-0.214c-7.13-0.112-14.257-0.129-21.384-0.333   c-4.04-0.112-8.077-0.485-12.111-0.823c-1.101-0.088-2.204-0.41-3.27-0.758C35.62,28.958,35.373,28.444,34.936,27.96z"/>
</g>
<g id="svg_x5F_message">
	<path fill="#C1CFD8" d="M274.347,46.7c-0.013-0.393-0.055-0.78-0.11-1.164c-0.006-0.042-0.005-0.084-0.012-0.125   c-0.02-0.125-0.05-0.248-0.074-0.372c-0.024-0.126-0.046-0.252-0.074-0.376c-0.043-0.186-0.094-0.369-0.146-0.551   c-0.032-0.112-0.06-0.226-0.096-0.337c-0.066-0.207-0.142-0.409-0.22-0.61c-0.032-0.083-0.059-0.167-0.093-0.249   c-0.116-0.281-0.243-0.558-0.381-0.827c-0.021-0.04-0.045-0.078-0.066-0.117c-0.12-0.228-0.246-0.453-0.381-0.671   c-0.054-0.088-0.115-0.171-0.171-0.257c-0.108-0.165-0.217-0.33-0.334-0.488c-0.069-0.095-0.145-0.185-0.217-0.277   c-0.113-0.143-0.226-0.286-0.345-0.423c-0.081-0.093-0.165-0.182-0.249-0.272c-0.12-0.128-0.24-0.255-0.365-0.377   c-0.09-0.088-0.182-0.172-0.274-0.257c-0.127-0.116-0.255-0.229-0.388-0.338c-0.097-0.081-0.194-0.158-0.293-0.235   c-0.136-0.105-0.275-0.206-0.416-0.303c-0.102-0.071-0.203-0.141-0.307-0.207c-0.146-0.094-0.294-0.182-0.444-0.268   c-0.105-0.06-0.209-0.121-0.316-0.177c-0.157-0.083-0.318-0.158-0.479-0.231c-0.104-0.048-0.208-0.099-0.313-0.143   c-0.176-0.073-0.356-0.136-0.536-0.199c-0.096-0.033-0.189-0.071-0.287-0.101c-0.226-0.07-0.455-0.128-0.687-0.181   c-0.054-0.013-0.107-0.03-0.162-0.042c-0.279-0.058-0.561-0.104-0.845-0.136c-0.017-0.002-0.034-0.004-0.05-0.005   c-0.116-0.013-0.232-0.022-0.349-0.03l-32.908-2.112c-1.625-0.106-3.134,0.243-4.43,0.944c-2.951,1.598-5.902,3.197-8.853,4.795   c1.295-0.702,2.805-1.051,4.43-0.944l32.908,2.112c0.117,0.007,0.233,0.017,0.349,0.03c0.303,0.032,0.603,0.08,0.898,0.142   c0.042,0.009,0.082,0.022,0.124,0.031c0.244,0.055,0.486,0.116,0.724,0.19c0.094,0.029,0.185,0.066,0.278,0.099   c0.183,0.063,0.365,0.127,0.543,0.201c0.106,0.044,0.209,0.095,0.314,0.143c0.161,0.074,0.321,0.148,0.478,0.231   c0.108,0.057,0.214,0.119,0.32,0.179c0.148,0.085,0.295,0.172,0.439,0.264c0.105,0.068,0.209,0.139,0.312,0.211   c0.139,0.097,0.275,0.196,0.41,0.299c0.101,0.078,0.2,0.157,0.298,0.238c0.13,0.108,0.257,0.219,0.382,0.333   c0.095,0.086,0.189,0.173,0.281,0.263c0.122,0.12,0.24,0.244,0.356,0.369c0.086,0.093,0.173,0.185,0.257,0.281   c0.115,0.133,0.225,0.271,0.334,0.41c0.076,0.097,0.154,0.191,0.228,0.291c0.112,0.152,0.216,0.311,0.321,0.469   c0.061,0.092,0.126,0.182,0.184,0.276c0.128,0.207,0.247,0.42,0.361,0.636c0.027,0.051,0.059,0.1,0.085,0.151   c0.138,0.268,0.264,0.543,0.379,0.823c0.037,0.089,0.066,0.182,0.101,0.272c0.074,0.194,0.148,0.389,0.212,0.587   c0.037,0.115,0.066,0.232,0.099,0.349c0.051,0.179,0.102,0.358,0.144,0.54c0.029,0.126,0.051,0.255,0.076,0.382   c0.031,0.164,0.061,0.327,0.084,0.493c0.055,0.384,0.097,0.772,0.11,1.165l1.453,33.143c0.122,3.651-1.66,6.711-4.397,8.193   c2.951-1.598,5.902-3.196,8.853-4.795c2.737-1.482,4.519-4.542,4.397-8.193L274.347,46.7z"/>
	<path fill="#D5E5EF" d="M265.494,51.495c-0.175-5.261-4.234-9.805-9.131-10.319c-0.116-0.013-0.232-0.022-0.349-0.03l-32.908-2.112   c-5.059-0.331-9.007,3.756-8.82,9.143l1.454,33.142c0.175,5.258,4.242,9.805,9.146,10.32c0.111,0.012,0.223,0.021,0.333,0.029   l3.346,0.214c-0.718,3.569-2.069,7.571-4.564,8.285c-4.667,1.333,4.333,0.75,7,0.083c1.473-0.368,5.586-4.065,8.977-7.639   l18.15,1.16c5.051,0.338,8.999-3.757,8.82-9.134L265.494,51.495z"/>
	<g>
		<g>
			<path fill="#F7F7F7" d="M256.499,64.671l0.332,14.327c0.016,0.771-0.651,1.348-1.484,1.277l-27.157-2.137     c-0.86-0.09-1.524-0.762-1.54-1.517l-0.332-14.476l15.223,9.694L256.499,64.671z"/>
		</g>
		<g>
			<path fill="#F7F7F7" d="M254.805,56.854c0.86,0.09,1.533,0.758,1.549,1.518l0.072,3.364l-14.941,7.162l-15.239-9.696     l-0.073-3.207c-0.016-0.771,0.644-1.34,1.484-1.269L254.805,56.854z"/>
		</g>
	</g>
</g>
<path id="svg_x5F_music" fill="#C1C1C1" d="M439.085,72.005c0,0-6.656,2.352-4.625,9.654c0,0,3.052,2.228,4.839-1.651  c0,0,2.888-2.278,2.735-7.145c0,0-0.781-12.282-0.439-12.206c0,0,2.919,0.229,5.239-1.9c0,0,4.51-0.95,5.193-2.889  c0,0,0.973-0.684,0.973,0.646v10.458c0,0-4.115,1.559-4.305,2.929c0,0-3.333,4.754-1.05,7.34c0,0,3.089,2.548,5.257-3.195  c0,0,1.809-3.004,1.695-4.145l0.619-0.907l-0.374-16.017c0,0,0.383-2.51,0.383-2.891s-1.558-1.103-2.013,0.571  c-0.457,1.673-0.267,2.396-0.267,2.396s-1.407,0.723-2.318,1.217c-0.913,0.494-6.999,3.727-7.797,3.955  c-0.799,0.228-1.75,0.685-1.826,0.305c-0.075-0.38,0.457-2.358,0.457-2.358s-1.408-1.863-1.674,0.114  c-0.267,1.978-0.342,6.047-0.228,6.959C439.674,64.158,439.551,71.805,439.085,72.005z"/>
<g id="svg_x5F_emo">
	<path fill="#E8E4E4" d="M564.125,67.785c-0.005-0.403-0.045-0.799-0.1-1.191c-0.007-0.049-0.005-0.1-0.013-0.148   c-0.013-0.081-0.032-0.159-0.047-0.238c-0.021-0.115-0.043-0.229-0.068-0.343c-0.035-0.162-0.076-0.321-0.119-0.479   c-0.03-0.111-0.06-0.222-0.094-0.332c-0.05-0.16-0.106-0.316-0.164-0.473c-0.038-0.104-0.074-0.208-0.115-0.31   c-0.067-0.166-0.144-0.328-0.22-0.49c-0.041-0.087-0.078-0.176-0.121-0.261c-0.104-0.206-0.218-0.407-0.336-0.604   c-0.022-0.037-0.041-0.077-0.064-0.114c-0.143-0.233-0.296-0.458-0.457-0.678c-0.049-0.066-0.102-0.128-0.152-0.193   c-0.116-0.151-0.233-0.301-0.358-0.445c-0.067-0.078-0.14-0.151-0.209-0.227c-0.115-0.125-0.23-0.248-0.351-0.366   c-0.079-0.077-0.161-0.15-0.242-0.225c-0.119-0.108-0.239-0.215-0.363-0.318c-0.088-0.072-0.177-0.141-0.267-0.21   c-0.126-0.097-0.254-0.19-0.384-0.28c-0.094-0.064-0.188-0.127-0.282-0.188c-0.135-0.086-0.271-0.167-0.411-0.247   c-0.097-0.055-0.192-0.11-0.291-0.162c-0.146-0.076-0.294-0.146-0.443-0.213c-0.098-0.044-0.193-0.09-0.291-0.13   c-0.163-0.067-0.328-0.125-0.495-0.183c-0.09-0.031-0.179-0.066-0.271-0.094c-0.208-0.064-0.42-0.117-0.633-0.166   c-0.053-0.012-0.104-0.028-0.157-0.04c-0.26-0.054-0.522-0.096-0.789-0.126c-0.018-0.001-0.034-0.003-0.051-0.005l-48.587-4.276   c-1.521-0.133-2.94,0.179-4.151,0.835c-2.951,1.598-5.902,3.197-8.853,4.795c1.211-0.656,2.63-0.969,4.15-0.835l48.588,4.276   c0.282,0.03,0.562,0.074,0.836,0.131c0.066,0.014,0.13,0.034,0.194,0.049c0.201,0.046,0.4,0.096,0.596,0.156   c0.099,0.03,0.193,0.067,0.29,0.101c0.159,0.055,0.318,0.11,0.475,0.175c0.104,0.042,0.204,0.091,0.306,0.137   c0.145,0.066,0.288,0.133,0.429,0.206c0.103,0.053,0.202,0.11,0.303,0.167c0.135,0.077,0.269,0.156,0.399,0.24   c0.098,0.063,0.194,0.127,0.291,0.194c0.128,0.088,0.253,0.181,0.377,0.275c0.091,0.07,0.182,0.14,0.27,0.213   c0.124,0.102,0.243,0.208,0.361,0.316c0.082,0.075,0.164,0.148,0.244,0.226c0.121,0.118,0.236,0.242,0.352,0.367   c0.069,0.075,0.141,0.147,0.207,0.224c0.129,0.149,0.251,0.304,0.371,0.461c0.046,0.059,0.095,0.115,0.139,0.175   c0.162,0.222,0.316,0.449,0.461,0.685c0.014,0.021,0.024,0.044,0.037,0.065c0.129,0.213,0.25,0.431,0.363,0.654   c0.039,0.077,0.072,0.156,0.109,0.234c0.081,0.17,0.16,0.342,0.231,0.518c0.039,0.095,0.072,0.193,0.107,0.29   c0.061,0.163,0.119,0.327,0.171,0.493c0.032,0.105,0.062,0.211,0.09,0.317c0.045,0.163,0.087,0.328,0.123,0.494   c0.024,0.11,0.046,0.221,0.066,0.333c0.023,0.131,0.042,0.263,0.061,0.395c0.055,0.391,0.095,0.787,0.1,1.188l0.722,49   c0.048,3.214-1.544,5.882-3.955,7.187c2.951-1.598,5.902-3.196,8.854-4.795c2.41-1.305,4.002-3.973,3.954-7.187L564.125,67.785z"/>
	<path fill="#FFF5F3" d="M555.272,72.58c-0.063-4.789-3.744-8.997-8.358-9.48l-48.588-4.276c-4.547-0.399-8.175,3.188-8.103,8.021   l0.714,49c0.071,4.79,3.744,8.996,8.367,9.48l2.413,0.212c-0.69,4.044-1.911,9.163-3.676,9.288   c-2.572,0.183,10.512,0.514,14.823-8.307l35.019,3.082c4.548,0.408,8.183-3.187,8.11-8.02L555.272,72.58z"/>
	<circle fill="#FFD38D" cx="521.644" cy="93.958" r="25.419"/>
	<g>
		<ellipse fill="#664126" cx="507.434" cy="91.936" rx="4.117" ry="4.267"/>
		<ellipse fill="#664126" cx="533.481" cy="95.08" rx="3.818" ry="4.116"/>
		<path fill="#664126" d="M522.296,109.062c-6.544,0-11.535-3.578-11.804-3.775c-0.802-0.585-0.978-1.709-0.392-2.51    c0.586-0.802,1.706-0.974,2.508-0.392c0.116,0.083,7.155,5.051,14.612,2.171c0.926-0.355,1.967,0.104,2.323,1.03    c0.356,0.926-0.104,1.965-1.03,2.323C526.359,108.739,524.258,109.062,522.296,109.062z"/>
	</g>
</g>
<g id="svg_x5F_talk">
	<g>
		<path fill="#F7F7F7" d="M187.033,250.406c1.458,0.153,2.908,0.571,4.346,1.254c0.643,0.313,1.244,0.629,1.829,0.944    c0.576,0.314,1.137,0.688,1.68,1.121c0.544,0.433,1.079,0.926,1.606,1.48c0.536,0.563,1.063,1.239,1.606,2.039    c1.243,1.853,2.19,3.972,2.832,6.355c0.642,2.393,0.97,4.927,1.002,7.614c0.032,2.678-0.25,5.472-0.828,8.366    c-0.586,2.893-1.477,5.753-2.665,8.574c-0.8,1.918-1.88,3.745-3.257,5.462c-1.369,1.718-3.116,3.335-5.234,4.834    c-2.011,1.432-3.923,2.438-5.72,3c-1.744,0.552-3.381,0.748-4.917,0.586c-0.053-0.005-0.105-0.012-0.159-0.018    c-1.582-0.201-3.032-0.748-4.35-1.646c-1.326-0.9-2.496-2.106-3.525-3.631c-0.997-1.477-1.819-3.233-2.486-5.252    c-0.576-1.713-0.987-3.662-1.25-5.857c-0.254-2.186-0.27-4.583-0.038-7.172c0.224-2.59,0.744-5.333,1.552-8.229    c0.817-2.904,1.988-5.91,3.539-9.016c0.248-0.489,0.692-1.142,1.335-1.966c0.643-0.824,1.385-1.559,2.217-2.223    c0.355-1.711,1.394-3.175,3.125-4.4c2.036-1.456,4.063-2.213,6.09-2.28C185.921,250.328,186.478,250.348,187.033,250.406z"/>
	</g>
	<g>
		<path fill="#57C0D2" d="M240.554,214.608c0.564,3.74,11.29,74.795,3.749,139.361c-0.282,0.956-5.635,19.11-30.077,24.742    c-1.713,0.221-34.272,4.427-78.546-0.225c-18.996-1.996-39.837-5.665-60.595-12.071c-0.615-0.25-12.292-5.007-21.11-20.802    c-4.178-0.282-8.421,0.068-12.673,0.399c-10.226,0.796-20.452,1.347-30.678,2.056c-0.479,0.033-0.934,0.026-1.368-0.02    c-2.477-0.26-4.249-1.778-5.404-4.25c-1.408-3.041-0.813-6.064,1.207-8.929c3.067-4.345,6.109-8.711,9.118-13.097    c0.867-1.002,17.337-20.041,29.646-36.159c-1.833-31.583-2.829-73.714,2.627-97.188c0.17-0.976,3.403-19.511,27.144-23.861    c2.076-0.199,41.519-3.977,88.052,0.913c15.963,1.677,32.521,4.399,48.189,8.683C211.225,174.726,237.632,185.49,240.554,214.608z     M201.107,279.579c0.578-2.894,0.859-5.688,0.827-8.366c-0.032-2.687-0.36-5.221-1.002-7.614    c-0.642-2.384-1.588-4.503-2.832-6.355c-0.544-0.8-1.071-1.476-1.606-2.039c-0.527-0.554-1.062-1.047-1.606-1.48    c-0.543-0.433-1.104-0.806-1.68-1.121c-0.585-0.315-1.186-0.632-1.829-0.944c-1.438-0.683-2.888-1.101-4.346-1.254    c-0.555-0.059-1.112-0.079-1.668-0.06c-2.027,0.066-4.054,0.824-6.09,2.279c-1.73,1.225-2.77,2.69-3.125,4.401    c-0.833,0.664-1.575,1.399-2.217,2.223c-0.643,0.824-1.088,1.477-1.335,1.966c-1.551,3.106-2.722,6.112-3.539,9.016    c-0.809,2.896-1.329,5.639-1.553,8.229c-0.231,2.589-0.216,4.986,0.039,7.172c0.263,2.195,0.674,4.144,1.25,5.857    c0.667,2.019,1.49,3.775,2.486,5.252c1.03,1.524,2.199,2.73,3.525,3.63c1.318,0.899,2.768,1.445,4.35,1.646    c0.053,0.006,0.105,0.012,0.159,0.017c1.536,0.162,3.173-0.034,4.917-0.586c1.796-0.563,3.708-1.568,5.719-3    c2.119-1.499,3.866-3.117,5.235-4.834c1.377-1.717,2.457-3.544,3.257-5.462C199.629,285.333,200.521,282.472,201.107,279.579     M124.212,278.99c0.158-3.087,0.036-6.115-0.375-9.086c-0.403-2.971-1.053-5.74-1.941-8.307c-0.889-2.576-2.009-4.905-3.351-7.004    c-1.351-2.091-2.875-3.833-4.596-5.221c-0.741-0.603-1.433-1.085-2.092-1.453c-0.659-0.366-1.293-0.677-1.919-0.918    c-0.626-0.241-1.252-0.429-1.87-0.546c-0.626-0.118-1.269-0.229-1.944-0.327c-0.135-0.019-0.27-0.035-0.404-0.049    c-1.932-0.203-3.742,0.021-5.422,0.678c-1.788,0.704-3.371,2.076-4.731,4.118c-1.154,1.723-1.616,3.458-1.386,5.221    c-0.536,0.896-0.957,1.84-1.27,2.838c-0.314,0.99-0.504,1.766-0.57,2.309c-0.389,3.482-0.48,6.742-0.268,9.788    c-0.168-2.476-0.347-3.552-0.439-3.562c-0.205-0.021,0.012,5.159,1.688,11.971c0.625,2.558,1.407,4.851,2.346,6.881    c0.938,2.031,1.943,3.771,3.005,5.238c1.244,1.73,2.553,3.153,3.92,4.258c1.417,1.146,2.858,1.944,4.333,2.387    c0.57,0.175,1.141,0.292,1.712,0.352c0.907,0.096,1.815,0.047,2.721-0.148c1.483-0.308,2.942-1.02,4.376-2.136    c1.434-1.117,2.819-2.685,4.171-4.693c1.418-2.115,2.465-4.216,3.142-6.313C123.725,283.178,124.113,281.086,124.212,278.99"/>
	</g>
	<g>
		<path fill="#F7F7F7" d="M105.72,246.08c0.134,0.014,0.268,0.03,0.403,0.048c0.676,0.097,1.318,0.208,1.944,0.327    c0.618,0.117,1.244,0.306,1.87,0.546c0.626,0.241,1.26,0.552,1.92,0.918c0.659,0.367,1.351,0.85,2.092,1.453    c1.721,1.387,3.245,3.129,4.596,5.221c1.342,2.099,2.462,4.429,3.351,7.004c0.889,2.567,1.539,5.337,1.941,8.308    c0.411,2.971,0.533,6,0.375,9.086c-0.1,2.096-0.488,4.188-1.165,6.276c-0.676,2.097-1.724,4.198-3.142,6.313    c-1.353,2.009-2.737,3.576-4.172,4.693c-1.434,1.117-2.893,1.829-4.376,2.136c-0.905,0.195-1.813,0.244-2.721,0.148    c-0.571-0.06-1.143-0.177-1.712-0.352c-1.475-0.443-2.916-1.242-4.333-2.387c-1.367-1.105-2.677-2.528-3.92-4.258    c-1.062-1.466-2.067-3.207-3.005-5.237c-0.938-2.03-1.72-4.324-2.345-6.881c-1.676-6.812-1.893-11.992-1.688-11.971    c0.092,0.009,0.271,1.086,0.439,3.562c-0.213-3.047-0.121-6.307,0.268-9.788c0.066-0.544,0.256-1.319,0.569-2.309    c0.313-0.999,0.734-1.942,1.27-2.839c-0.23-1.764,0.232-3.498,1.387-5.221c1.36-2.042,2.943-3.415,4.731-4.118    C101.978,246.101,103.788,245.877,105.72,246.08z"/>
	</g>
	<linearGradient id="SVGID_1_" gradientUnits="userSpaceOnUse" x1="151.041" y1="164.8906" x2="288.0887" y2="328.6462">
		<stop offset="0" style="stop-color:#92BCC4"/>
		<stop offset="1" style="stop-color:#3F8A97"/>
	</linearGradient>
	<path fill="url(#SVGID_1_)" d="M268.722,199.348c-0.095-0.943-0.216-1.866-0.358-2.771c-0.048-0.305-0.111-0.597-0.164-0.897   c-0.104-0.592-0.208-1.185-0.332-1.76c-0.075-0.35-0.165-0.687-0.247-1.03c-0.122-0.509-0.241-1.019-0.377-1.515   c-0.098-0.356-0.207-0.702-0.312-1.051c-0.14-0.466-0.279-0.933-0.431-1.387c-0.117-0.35-0.243-0.69-0.367-1.033   c-0.157-0.436-0.315-0.87-0.483-1.294c-0.135-0.34-0.276-0.673-0.417-1.006c-0.174-0.41-0.349-0.817-0.532-1.216   c-0.149-0.326-0.303-0.646-0.459-0.965c-0.189-0.389-0.382-0.774-0.58-1.153c-0.163-0.311-0.327-0.617-0.495-0.92   c-0.204-0.37-0.412-0.734-0.624-1.094c-0.173-0.294-0.347-0.586-0.524-0.874c-0.218-0.353-0.44-0.698-0.664-1.041   c-0.182-0.277-0.362-0.554-0.548-0.824c-0.231-0.337-0.467-0.667-0.704-0.994c-0.186-0.258-0.371-0.517-0.56-0.768   c-0.246-0.327-0.496-0.643-0.747-0.958c-0.188-0.236-0.373-0.476-0.563-0.706c-0.263-0.319-0.529-0.626-0.795-0.935   c-0.183-0.21-0.363-0.426-0.547-0.632c-0.289-0.323-0.581-0.632-0.873-0.943c-0.165-0.175-0.328-0.357-0.494-0.529   c-0.361-0.373-0.724-0.731-1.087-1.085c-0.098-0.096-0.196-0.198-0.294-0.292c-0.462-0.444-0.925-0.873-1.388-1.286   c-0.132-0.119-0.264-0.228-0.396-0.344c-0.331-0.29-0.661-0.58-0.99-0.854c-0.022-0.019-0.046-0.041-0.069-0.06   c-0.278-0.231-0.552-0.45-0.828-0.671c-0.125-0.1-0.251-0.206-0.375-0.304c-0.421-0.332-0.838-0.651-1.251-0.959   c-0.097-0.072-0.19-0.137-0.287-0.208c-0.316-0.232-0.632-0.462-0.941-0.681c-0.154-0.108-0.302-0.208-0.454-0.312   c-0.248-0.171-0.496-0.343-0.738-0.504c-0.165-0.11-0.324-0.212-0.487-0.318c-0.221-0.145-0.443-0.29-0.659-0.426   c-0.167-0.105-0.327-0.204-0.49-0.305c-0.203-0.126-0.405-0.251-0.602-0.37c-0.163-0.098-0.319-0.19-0.477-0.283   c-0.188-0.111-0.375-0.22-0.556-0.324c-0.153-0.088-0.302-0.172-0.45-0.255c-0.175-0.098-0.346-0.193-0.513-0.284   c-0.143-0.078-0.281-0.153-0.417-0.226c-0.163-0.086-0.319-0.169-0.473-0.25c-0.127-0.066-0.251-0.131-0.373-0.193   c-0.149-0.076-0.291-0.147-0.431-0.217c-0.112-0.056-0.223-0.111-0.329-0.163c-0.133-0.065-0.255-0.124-0.378-0.182   c-0.097-0.046-0.194-0.093-0.285-0.135c-0.117-0.054-0.22-0.102-0.325-0.15c-0.078-0.035-0.157-0.072-0.228-0.104   c-0.104-0.047-0.192-0.085-0.281-0.125c-0.054-0.023-0.112-0.049-0.16-0.07c-0.086-0.037-0.154-0.065-0.221-0.094   c-0.034-0.014-0.074-0.031-0.103-0.043c-0.083-0.035-0.147-0.061-0.188-0.078c-15.668-4.283-32.227-7.005-48.189-8.683   c-46.533-4.89-85.977-1.112-88.052-0.913c-0.622,0.114-1.229,0.239-1.823,0.372c-0.189,0.042-0.37,0.09-0.557,0.135   c-0.396,0.094-0.791,0.187-1.174,0.289c-0.038,0.01-0.079,0.019-0.118,0.029c-0.094,0.025-0.179,0.056-0.272,0.082   c-0.592,0.163-1.168,0.335-1.731,0.517c-0.173,0.056-0.346,0.111-0.517,0.168c-0.647,0.218-1.279,0.445-1.887,0.685   c-0.073,0.029-0.142,0.06-0.215,0.089c-0.546,0.22-1.075,0.449-1.59,0.686c-0.153,0.07-0.305,0.14-0.455,0.211   c-0.564,0.268-1.117,0.542-1.645,0.828l-28.168,15.26c0.002-0.001,0.005-0.002,0.007-0.003c-0.002,0.001-0.004,0.002-0.006,0.003   c0.006-0.003,0.014-0.007,0.02-0.01c0.521-0.282,1.067-0.553,1.625-0.818c0.149-0.071,0.301-0.141,0.453-0.211   c0.52-0.238,1.053-0.47,1.604-0.691c0.067-0.027,0.131-0.056,0.199-0.083c0.611-0.242,1.246-0.469,1.895-0.688   c0.168-0.057,0.339-0.111,0.509-0.166c0.561-0.181,1.135-0.353,1.725-0.516c0.136-0.037,0.267-0.078,0.404-0.114   c0.366-0.097,0.743-0.186,1.12-0.275c0.205-0.049,0.404-0.102,0.612-0.148c0.592-0.132,1.196-0.256,1.816-0.37   c2.076-0.199,41.519-3.977,88.052,0.913c15.963,1.677,32.521,4.399,48.189,8.683c0.041,0.017,0.107,0.043,0.188,0.078   c0.031,0.013,0.077,0.033,0.113,0.048c0.063,0.026,0.127,0.053,0.207,0.088c0.056,0.024,0.127,0.056,0.19,0.083   c0.079,0.035,0.157,0.069,0.248,0.109c0.078,0.035,0.168,0.077,0.253,0.116c0.098,0.044,0.196,0.089,0.304,0.14   c0.092,0.043,0.195,0.093,0.294,0.14c0.119,0.057,0.24,0.115,0.368,0.177c0.109,0.054,0.225,0.111,0.341,0.169   c0.134,0.067,0.272,0.137,0.415,0.209c0.125,0.064,0.255,0.131,0.387,0.2c0.15,0.078,0.304,0.16,0.462,0.244   c0.138,0.074,0.279,0.15,0.423,0.229c0.166,0.09,0.336,0.185,0.508,0.282c0.149,0.083,0.299,0.168,0.454,0.256   c0.181,0.104,0.368,0.213,0.555,0.324c0.158,0.093,0.315,0.186,0.477,0.283c0.196,0.118,0.398,0.243,0.6,0.368   c0.163,0.101,0.325,0.201,0.492,0.306c0.216,0.137,0.438,0.282,0.659,0.426c0.162,0.105,0.322,0.208,0.487,0.318   c0.244,0.163,0.495,0.336,0.745,0.509c0.148,0.103,0.294,0.2,0.445,0.306c0.324,0.228,0.655,0.469,0.987,0.713   c0.081,0.059,0.159,0.114,0.24,0.174c0.415,0.309,0.835,0.631,1.259,0.964c0.109,0.086,0.22,0.179,0.33,0.267   c0.313,0.25,0.625,0.502,0.941,0.767c0.318,0.267,0.639,0.547,0.959,0.828c0.143,0.125,0.284,0.242,0.426,0.37   c0.461,0.413,0.923,0.84,1.384,1.282c0.108,0.104,0.216,0.217,0.324,0.322c0.353,0.345,0.706,0.693,1.057,1.056   c0.17,0.176,0.338,0.363,0.507,0.543c0.288,0.306,0.575,0.61,0.86,0.929c0.186,0.208,0.369,0.427,0.554,0.64   c0.264,0.305,0.528,0.61,0.789,0.926c0.191,0.232,0.378,0.474,0.567,0.712c0.249,0.313,0.497,0.627,0.741,0.951   c0.191,0.253,0.378,0.515,0.566,0.775c0.235,0.325,0.469,0.651,0.698,0.986c0.187,0.272,0.369,0.551,0.551,0.83   c0.223,0.341,0.444,0.685,0.661,1.035c0.179,0.289,0.354,0.583,0.528,0.879c0.21,0.358,0.417,0.721,0.621,1.089   c0.168,0.305,0.333,0.613,0.497,0.924c0.197,0.377,0.389,0.761,0.578,1.149c0.156,0.32,0.311,0.643,0.461,0.97   c0.182,0.397,0.357,0.804,0.53,1.211c0.142,0.334,0.283,0.668,0.418,1.01c0.167,0.423,0.325,0.856,0.482,1.291   c0.124,0.344,0.25,0.686,0.368,1.036c0.151,0.453,0.291,0.918,0.43,1.383c0.105,0.351,0.215,0.697,0.313,1.054   c0.136,0.495,0.255,1.005,0.377,1.513c0.082,0.344,0.171,0.681,0.247,1.031c0.124,0.575,0.228,1.168,0.332,1.76   c0.053,0.3,0.116,0.592,0.164,0.897c0.142,0.905,0.264,1.827,0.358,2.771c0.564,3.74,11.29,74.795,3.749,139.361   c-0.226,0.766-3.709,12.578-17.663,20.137c9.39-5.087,18.778-10.173,28.168-15.26c13.954-7.56,17.438-19.372,17.663-20.137   C280.012,274.144,269.286,203.087,268.722,199.348z"/>
</g>
<g id="svg_x5F_movie">
	<g>
		<path fill="#6DABDA" d="M518.526,247.958c0.459,3.614,9.182,72.284,0.406,134.211c-0.295,0.912-5.891,18.244-29.656,23.02    c-1.416,0.143-28.315,2.863-66.247-1.123c-20.814-2.188-44.521-6.436-68.04-14.352c-1.035-0.452-20.687-9.036-26.244-39.095    c-0.374-4.695-7.469-93.904,2.658-132.936c0.187-0.935,3.74-18.689,26.798-22.254c1.704-0.116,34.081-2.318,74.495,1.928    c18.579,1.952,38.494,5.291,57.056,10.881C491.083,208.82,516.371,219.864,518.526,247.958z"/>
	</g>
	<linearGradient id="SVGID_2_" gradientUnits="userSpaceOnUse" x1="407.7266" y1="190.9727" x2="552.1987" y2="336.8292">
		<stop offset="0" style="stop-color:#819EB4"/>
		<stop offset="1" style="stop-color:#4A7494"/>
	</linearGradient>
	<path fill="url(#SVGID_2_)" d="M546.694,232.698c-0.071-0.934-0.173-1.845-0.293-2.741c-0.041-0.298-0.095-0.584-0.14-0.878   c-0.092-0.59-0.185-1.179-0.296-1.753c-0.066-0.339-0.144-0.669-0.216-1.003c-0.112-0.512-0.226-1.022-0.353-1.521   c-0.087-0.344-0.183-0.68-0.276-1.018c-0.133-0.474-0.27-0.943-0.415-1.404c-0.105-0.334-0.215-0.663-0.327-0.991   c-0.153-0.45-0.313-0.893-0.479-1.331c-0.12-0.317-0.24-0.633-0.366-0.943c-0.177-0.436-0.361-0.862-0.549-1.286   c-0.129-0.293-0.257-0.588-0.392-0.875c-0.205-0.438-0.42-0.863-0.636-1.287c-0.13-0.255-0.256-0.515-0.389-0.765   c-0.257-0.481-0.524-0.948-0.794-1.411c-0.104-0.178-0.202-0.363-0.307-0.539c-0.378-0.629-0.766-1.243-1.162-1.839   c-0.103-0.153-0.209-0.297-0.313-0.449c-0.302-0.44-0.604-0.878-0.914-1.301c-0.159-0.215-0.321-0.421-0.481-0.632   c-0.262-0.344-0.524-0.688-0.791-1.021c-0.18-0.223-0.36-0.438-0.542-0.655c-0.254-0.305-0.508-0.607-0.766-0.902   c-0.189-0.217-0.38-0.428-0.57-0.639c-0.254-0.281-0.509-0.557-0.765-0.828c-0.193-0.204-0.387-0.405-0.58-0.604   c-0.258-0.263-0.516-0.52-0.773-0.773c-0.192-0.188-0.384-0.375-0.575-0.558c-0.267-0.253-0.531-0.497-0.797-0.739   c-0.183-0.167-0.365-0.336-0.547-0.498c-0.285-0.252-0.567-0.493-0.85-0.734c-0.131-0.111-0.264-0.232-0.395-0.341l-0.003,0.001   l0,0l0.003-0.001c-0.033-0.028-0.066-0.053-0.1-0.081c-0.124-0.103-0.245-0.199-0.368-0.3c-0.271-0.22-0.539-0.438-0.807-0.648   c-0.144-0.113-0.285-0.221-0.428-0.331c-0.243-0.188-0.485-0.372-0.725-0.55c-0.146-0.109-0.292-0.216-0.437-0.321   c-0.231-0.168-0.459-0.333-0.686-0.492c-0.144-0.102-0.286-0.202-0.428-0.3c-0.227-0.157-0.448-0.308-0.669-0.456   c-0.131-0.088-0.262-0.176-0.39-0.261c-0.232-0.153-0.457-0.297-0.681-0.44c-0.109-0.07-0.221-0.142-0.328-0.21   c-0.267-0.167-0.523-0.324-0.776-0.477c-0.057-0.035-0.116-0.072-0.173-0.106c-0.309-0.185-0.605-0.359-0.891-0.522   c-0.07-0.041-0.135-0.076-0.204-0.115c-0.21-0.119-0.416-0.235-0.611-0.342c-0.094-0.052-0.181-0.097-0.271-0.146   c-0.161-0.087-0.319-0.172-0.469-0.251c-0.091-0.048-0.175-0.091-0.262-0.136c-0.136-0.07-0.267-0.138-0.391-0.2   c-0.081-0.041-0.156-0.079-0.231-0.116c-0.116-0.058-0.225-0.111-0.328-0.161c-0.066-0.032-0.13-0.063-0.191-0.093   c-0.101-0.048-0.189-0.09-0.275-0.13c-0.046-0.021-0.092-0.043-0.134-0.062c-0.088-0.041-0.16-0.074-0.228-0.104   c-0.023-0.011-0.05-0.023-0.071-0.032c-0.077-0.035-0.139-0.062-0.178-0.079c-18.562-5.59-38.477-8.929-57.056-10.881   c-40.414-4.246-72.791-2.044-74.495-1.929c-0.75,0.116-1.473,0.251-2.182,0.396c-0.21,0.042-0.413,0.089-0.619,0.135   c-0.51,0.111-1.008,0.23-1.496,0.355c-0.12,0.031-0.249,0.056-0.367,0.087c-0.083,0.022-0.158,0.049-0.241,0.072   c-0.621,0.17-1.229,0.35-1.815,0.542c-0.044,0.014-0.09,0.026-0.133,0.041c-0.63,0.208-1.234,0.431-1.825,0.662   c-0.168,0.066-0.331,0.134-0.496,0.202c-0.435,0.177-0.859,0.36-1.273,0.549c-0.16,0.073-0.322,0.145-0.479,0.22   c-0.539,0.256-1.066,0.518-1.57,0.791c-9.39,5.087-18.778,10.173-28.168,15.26c0.504-0.273,1.032-0.535,1.571-0.791   c0.156-0.074,0.317-0.146,0.478-0.219c0.415-0.189,0.841-0.373,1.276-0.55c0.164-0.067,0.326-0.135,0.493-0.2   c0.592-0.231,1.196-0.454,1.826-0.662c0.042-0.014,0.086-0.026,0.128-0.04c0.588-0.192,1.196-0.372,1.818-0.542   c0.201-0.055,0.407-0.107,0.612-0.16c0.484-0.125,0.98-0.243,1.486-0.354c0.21-0.046,0.418-0.094,0.631-0.137   c0.708-0.145,1.43-0.279,2.178-0.395c1.704-0.116,34.081-2.318,74.495,1.928c18.579,1.952,38.494,5.291,57.056,10.881   c0.037,0.016,0.1,0.043,0.173,0.076c0.028,0.013,0.069,0.031,0.103,0.046c0.058,0.026,0.119,0.054,0.192,0.087   c0.049,0.022,0.109,0.051,0.166,0.077c0.075,0.035,0.154,0.073,0.241,0.114c0.068,0.032,0.144,0.069,0.219,0.105   c0.093,0.045,0.191,0.094,0.294,0.145c0.085,0.042,0.174,0.086,0.265,0.133c0.112,0.056,0.23,0.117,0.352,0.18   c0.098,0.05,0.195,0.101,0.298,0.155c0.135,0.07,0.278,0.148,0.422,0.225c0.104,0.056,0.205,0.11,0.314,0.17   c0.174,0.095,0.358,0.2,0.544,0.304c0.091,0.052,0.176,0.099,0.27,0.152c0.281,0.161,0.573,0.332,0.876,0.513   c0.076,0.046,0.157,0.097,0.235,0.144c0.232,0.142,0.469,0.286,0.713,0.439c0.118,0.074,0.242,0.155,0.362,0.232   c0.212,0.135,0.425,0.272,0.644,0.417c0.137,0.09,0.277,0.185,0.416,0.278c0.214,0.143,0.429,0.289,0.647,0.44   c0.145,0.1,0.292,0.204,0.438,0.308c0.223,0.157,0.448,0.319,0.675,0.484c0.148,0.108,0.296,0.216,0.446,0.328   c0.236,0.176,0.475,0.358,0.715,0.543c0.146,0.112,0.29,0.222,0.437,0.337c0.266,0.209,0.535,0.427,0.805,0.647   c0.122,0.1,0.243,0.196,0.366,0.298c0.165,0.138,0.333,0.285,0.5,0.427c0.28,0.239,0.562,0.479,0.844,0.73   c0.182,0.161,0.364,0.331,0.547,0.497c0.266,0.243,0.532,0.488,0.799,0.742c0.19,0.181,0.38,0.367,0.57,0.553   c0.261,0.256,0.521,0.516,0.781,0.782c0.19,0.195,0.382,0.394,0.572,0.595c0.259,0.273,0.517,0.554,0.773,0.838   c0.188,0.208,0.376,0.417,0.563,0.63c0.26,0.297,0.518,0.604,0.774,0.913c0.179,0.214,0.357,0.426,0.534,0.646   c0.27,0.335,0.534,0.683,0.799,1.031c0.158,0.208,0.318,0.411,0.474,0.623c0.314,0.427,0.62,0.869,0.925,1.314   c0.1,0.146,0.203,0.286,0.303,0.435c0.397,0.598,0.786,1.212,1.164,1.842c0.103,0.17,0.198,0.351,0.299,0.524   c0.272,0.468,0.542,0.939,0.801,1.424c0.133,0.249,0.258,0.507,0.387,0.76c0.217,0.426,0.433,0.854,0.639,1.292   c0.134,0.286,0.261,0.58,0.39,0.872c0.188,0.424,0.373,0.852,0.55,1.289c0.126,0.31,0.246,0.625,0.366,0.942   c0.166,0.438,0.326,0.882,0.48,1.333c0.111,0.327,0.221,0.656,0.326,0.989c0.146,0.461,0.282,0.932,0.415,1.405   c0.094,0.337,0.189,0.673,0.276,1.017c0.127,0.499,0.24,1.01,0.353,1.522c0.072,0.333,0.149,0.663,0.216,1.002   c0.111,0.574,0.204,1.163,0.296,1.753c0.045,0.294,0.1,0.581,0.14,0.878c0.12,0.896,0.222,1.808,0.293,2.741   c0.459,3.614,9.182,72.284,0.406,134.211c-0.23,0.712-3.69,11.429-16.501,18.369l28.168-15.26   c12.811-6.94,16.271-17.656,16.501-18.368C555.876,304.982,547.153,236.312,546.694,232.698z"/>
	<linearGradient id="SVGID_3_" gradientUnits="userSpaceOnUse" x1="589.748" y1="257.4263" x2="598.7814" y2="297.9472">
		<stop offset="0" style="stop-color:#819EB4"/>
		<stop offset="1" style="stop-color:#4A7494"/>
	</linearGradient>
	<path fill="url(#SVGID_3_)" d="M615.794,292.38c-0.25-13.339-0.524-26.672-0.733-40.007c-0.032-2.083-0.435-3.979-1.604-5.737   c-0.26-0.39-0.538-0.741-0.824-1.075c-0.075-0.088-0.151-0.173-0.229-0.257c-0.272-0.296-0.552-0.574-0.843-0.821   c-0.019-0.016-0.035-0.038-0.055-0.054c-0.005-0.004-0.011-0.007-0.016-0.011c-0.274-0.229-0.559-0.431-0.848-0.616   c-0.088-0.056-0.178-0.103-0.267-0.155c-0.208-0.122-0.419-0.235-0.634-0.335c-0.105-0.049-0.212-0.095-0.319-0.139   c-0.214-0.087-0.431-0.162-0.649-0.228c-0.099-0.029-0.195-0.063-0.293-0.087c-0.315-0.079-0.634-0.143-0.955-0.176   s-0.646-0.037-0.971-0.025c-0.057,0.002-0.112,0.002-0.169,0.006c-0.313,0.02-0.626,0.061-0.939,0.124   c-0.062,0.012-0.122,0.027-0.183,0.041c-0.098,0.021-0.194,0.038-0.292,0.064c-0.152,0.041-0.304,0.102-0.456,0.152   c-0.105,0.036-0.212,0.066-0.318,0.107c-0.331,0.127-0.661,0.273-0.988,0.45l-28.168,15.26c0.328-0.177,0.658-0.324,0.99-0.451   c0.104-0.04,0.207-0.069,0.311-0.104c0.252-0.085,0.505-0.164,0.758-0.22c0.059-0.013,0.117-0.027,0.176-0.039   c0.314-0.063,0.63-0.104,0.943-0.124c0.056-0.003,0.111-0.004,0.167-0.006c0.325-0.013,0.65-0.009,0.972,0.025   s0.64,0.097,0.955,0.176c0.098,0.025,0.195,0.058,0.293,0.087c0.219,0.065,0.436,0.14,0.649,0.228   c0.107,0.044,0.214,0.09,0.319,0.139c0.214,0.1,0.425,0.213,0.634,0.335c0.089,0.052,0.179,0.099,0.268,0.156   c0.288,0.185,0.571,0.387,0.846,0.615c0.025,0.021,0.049,0.046,0.073,0.067c0.291,0.247,0.569,0.524,0.841,0.819   c0.077,0.084,0.153,0.169,0.229,0.257c0.286,0.334,0.565,0.685,0.824,1.075c1.17,1.757,1.572,3.653,1.604,5.737   c0.209,13.334,0.483,26.667,0.733,40.007c0.233,13.049,0.418,26.101,0.758,39.161c0.095,3.625-1.123,6.15-3.761,7.579   c8.92-4.832,17.839-9.665,26.76-14.497c0.174-0.094,0.377-0.204,0.578-0.313l0.83-0.45c2.638-1.429,3.855-3.954,3.761-7.579   C616.212,318.481,616.027,305.429,615.794,292.38z"/>
	<g>
		<path fill="#6DABDA" d="M579.357,257.943c2.238,0.235,4.35,1.581,5.931,3.954c1.17,1.757,1.572,3.653,1.604,5.737    c0.209,13.334,0.483,26.667,0.733,40.007c0.233,13.049,0.418,26.101,0.758,39.161c0.098,3.769-1.222,6.349-4.082,7.744    c-1.261,0.611-2.522,0.848-3.763,0.718c-1.662-0.174-3.288-1.008-4.83-2.486c-9.282-8.886-16.118-17.55-25.359-26.493    c-2.273-2.197-4.868-4.035-6.474-7.035c-1.449-2.696-2.297-5.521-2.354-8.534c-0.097-4.669-0.028-9.33-0.216-14    c-0.271-6.471,2.591-10.541,6.886-13.944c9.347-7.41,16.058-15.306,25.306-22.865    C575.369,258.374,577.411,257.738,579.357,257.943z"/>
	</g>
	<path fill="#F7F7F7" d="M464.023,318.743c3.354-2.305,5.515-6.248,5.427-10.942c-0.089-4.687-2.411-9.012-5.854-11.726   l-48.289-31.752c-1.994-1.584-4.381-2.64-6.929-2.907c-0.093-0.01-0.186-0.019-0.28-0.027c-6.78-0.563-12.205,4.592-12.487,11.651   l1.023,56.243c0.024,0.265,0.008,0.499,0.008,0.753c0.143,7.391,5.818,13.875,12.747,14.603c0.092,0.01,0.183,0.018,0.273,0.026   c3,0.254,5.728-0.623,7.871-2.285L464.023,318.743"/>
</g>
<g id="svg_x5F_thumb">
	<path fill="#B0CFE2" d="M179.917,27.754h2.5c0.688,0,1.25-0.563,1.25-1.25v-11.25c0-0.688-0.563-1.25-1.25-1.25h-2.5V27.754z"/>
	<path fill="#B0CFE2" d="M204.704,18.854c0.137-0.313,0.213-0.65,0.213-1v-1.35c0-1.375-1.125-2.5-2.5-2.5h-6.875l1.15-5.813   c0.063-0.275,0.023-0.575-0.101-0.825c-0.288-0.562-0.649-1.075-1.1-1.525l-0.575-0.587l-8.013,8.013   c-0.475,0.475-0.737,1.112-0.737,1.775v9.8c0,1.6,1.313,2.913,2.925,2.913h10.138c0.875,0,1.701-0.463,2.15-1.212L204.704,18.854z"/>
</g>
<g id="svg_x5F_woman">
	<linearGradient id="SVGID_4_" gradientUnits="userSpaceOnUse" x1="123.8906" y1="150.519" x2="158.9655" y2="166.6764">
		<stop offset="0" style="stop-color:#000000;stop-opacity:0"/>
		<stop offset="1" style="stop-color:#000000;stop-opacity:0.3"/>
	</linearGradient>
	<path fill="url(#SVGID_4_)" d="M117.917,154c0,0,6,1.417,9.917,1.417s10.434,0.897,13.833,0.833   c10.021-0.188,38.813,5.208,35.396,7.375s-32.313,1.292-37.146,0.208S109,157.25,109.75,156.167S117.917,154,117.917,154z"/>
	<path fill="#9B4129" d="M165.1,90.09c0,0,0.204,12.898,0.677,15.486c0.474,2.588,0.679,7.122-0.498,8.11   c-1.177,0.988-7.695,0.063-7.695,0.063l-6.75-1.25c0,0-6.761-12.805-6-13.917c0.761-1.111,15-18.25,15-18.25l4.316,4.788   L165.1,90.09z"/>
	<path fill="#DD8A9E" d="M169.778,153.664c2.446,0.088,4.345,2.434,4.245,5.241l0,0c-0.098,2.811,3.645,3.933,1.204,3.845   l-29.977,0.688c-2.445-0.086-4.64-3.479-4.541-6.288l0,0c0.101-2.81,2.161-5.016,4.606-4.932L169.778,153.664z"/>
	<path fill="#DD8A9E" d="M172,188.622c3,0.217,5.479,0.074,5.702-2.786l1.853-28.792c0.221-2.86-1.786-5.356-4.588-5.573l0,0   c-2.802-0.218-5.31,1.925-5.532,4.787c0,0,0.44,6.118-0.903,13.816s-0.378,14.052-0.064,15.177S169.625,186.618,172,188.622z"/>
	<path fill="#FFFFFF" d="M163.5,148.359c0,5.621,4.943,6.641-0.678,6.641l-12.875-2.508c-9.697,3.57-7.635-5.68-5.135-13.555   l-4.107-16.438c0,0-1.289-9.046,1.294-10.564s6.333-1.833,7.417-2.301s2-0.885,2.167-1.801s1.667,0.917,1.667,0.917l3.75,0.083   c0,0,0.473-0.188,1-1.257s0.865,0,0.865,0l1.135,2.59c0,0,5.667,0.917,6.333,1c0,0,3.707,15.271,1.411,19.5   c-1.493,2.75-2.745,3.226-4.328,3.226c0,0,0.022,6.274-0.614,9.857S163.5,148.359,163.5,148.359z"/>
	<path fill="#CECCC8" d="M158.313,107.156c0,0,1.156,2.938,1.25,3.438s0.094,0.5,0.094,0.5l0,0c0,0-3.281,9.125-4.281,9.156   c0,0,2.937-4.525,2.906-8.469C158.25,107.766,158.125,107.484,158.313,107.156z"/>
	<path fill="#F6ABBA" d="M149,164c4.563-0.583,7.401-1.538,11.333-3.333c9.415-4.297,18.636-11.326,18.636-11.325   c3.706-0.975,8.146,1.16,7.432-1.561l-0.212-1.493c-0.715-2.716-1.841-7.334-5.549-6.36l-38.075,7.461c0,0-3.247,4.563-3.326,6.112   C138.917,159.75,137.911,165.418,149,164z"/>
	<path fill="#F7B2AC" d="M148,96.097c0,1.051-0.852,1.903-1.903,1.903h-0.193c-1.051,0-1.903-0.852-1.903-1.903v-5.193   c0-1.051,0.852-1.903,1.903-1.903h0.193c1.051,0,2.341,0.917,2.341,1.969L148,96.097z"/>
	<path fill="#F7B2AC" d="M157,110.373c0,1.601-0.685,2.897-2.5,2.897l0,0c-1.817,0-2.5-1.296-2.5-2.897v-3.477   c0-1.6,0.079-2.938,1.896-2.938l2.417-0.021c1.313-0.042,0.688,1.359,0.688,2.959V110.373z"/>
	<path fill="#FFFFFF" d="M183.692,126.992c1.604,1.475,2.781,4.153,1.308,5.758l-1.5,1.333c-1.476,1.605-3.397-1.018-5-2.49   l-14.739-12.623c-1.603-1.475-1.709-3.968-0.234-5.573l0.172-0.188c1.475-1.604,3.969-1.707,5.574-0.234L183.692,126.992z"/>
	<path fill="#F5F5F5" d="M135.094,136.917c-1.116,1.713-3.498,2.138-5.323,0.95l-0.213-0.139c-1.826-1.189-2.423-2.641-1.308-4.353   l12.134-19.502c1.114-1.712,3.498-2.138,5.323-0.949l0.213,0.139c1.826,1.189,2.194,6.225,1.08,7.938L135.094,136.917z"/>
	<path fill="#F8BAAB" d="M123.969,151.063c-0.826,1.178-1.978,1.807-3.452,0.777l-0.173-0.121c-1.474-1.031,0.085-1.979,0.907-3.156   l7.031-12c0.825-1.178,1.375-1.885,2.375-1.344l2.502,0.193c0.863,0.883,1.288,2.182,0.463,3.361L123.969,151.063z"/>
	<path fill="#F8BAAB" d="M123,153c0,1.657-1.343,3-3,3h-7c-1.657,0-3.875,0.532-3.875-1.125l2-1.188   c0-1.657,1.718-1.438,3.375-1.438c0,0,4.125-0.5,5.563-1.75S123,151.343,123,153L123,153z"/>
	<g>
		<path fill="#F7B2AC" d="M175.438,187.625c0,0-0.563,3.344,0.13,4.753c0.19,0.387-0.656,1.74-1.349,1.787    c-0.693,0.048-4.094-0.134-4.469-0.415c-0.376-0.28-1-2.25-1-2.25s0.43-1.118,0.708-2.006c0.278-0.888,0.854-2.838,0.854-2.838    s-0.093-1.186,2.375-0.608S175.438,187.625,175.438,187.625z"/>
		<path fill="#F4F4F4" d="M185.189,202.343l0.018,1.787c0,0-0.624,1.532-2.334,1.661c-1.71,0.128-5.159-0.208-6.284-1.09    c-1.126-0.881-5.865-4.815-6.463-5.07c-0.599-0.254-3.057-1.583-3.028-2.984c0.029-1.402,0.568-2.111,0.568-2.111l5.628,3.831    l6.155,4.072L185.189,202.343z"/>
		<path fill="#5FB8FC" d="M168.79,189.968c0,0-2.447,2.778-1.407,6.229c0,0,0.838,0.951,2.636,2.203l0.16,0.114    c0,0,2.359,1.908,3.106,2.524c0.747,0.618,3.534,1.837,3.534,1.837l3.891-1.119l2.089-2.998l-0.378-0.484    c0,0-3.87-3.567-4.324-4.344c-0.454-0.776-1.431-1.659-1.806-1.879c-0.374-0.22-0.859-0.364-0.859-0.364s0.24,1.672-0.951,1.647    c-1.191-0.026-3.993,0.477-4.922-0.918c-0.714-1.072-0.714-1.51-0.467-2.079c0.169-0.389,0.588-0.639,0.588-0.639L168.79,189.968z    "/>
		<path fill="#2C9FE5" d="M182.754,198.274c0,0-1.602-0.133-2.74,1.405c-1.138,1.537-1.901,3.369-3.811,2.234    c-1.909-1.134-3.074-2.201-3.443-1.9c-0.369,0.302-0.22,0.332-0.22,0.332s5.344,5.869,12.093,3.568    C184.635,203.912,187.672,202.504,182.754,198.274z"/>
		<path fill="#F9F9F9" d="M178.618,199.038c-0.246-2.069,0.972-3.355,1.024-3.409l0.359,0.348c-0.011,0.011-1.104,1.176-0.887,3.002    L178.618,199.038z"/>
		<path fill="#F9F9F9" d="M177.014,197.892l-0.291-0.406c1.24-0.889,4.585,0.001,4.727,0.04l-0.13,0.483    C180.417,197.764,177.884,197.268,177.014,197.892z"/>
		<path fill="#F9F9F9" d="M175.612,195.582c0.281-1.176,0.635-2.933,0.639-2.951l0.49,0.099c-0.004,0.018-0.359,1.783-0.642,2.968    L175.612,195.582z"/>
		<path fill="#F9F9F9" d="M173.937,194.428l-0.111-0.487c0.127-0.029,3.129-0.702,4.323-0.016l-0.25,0.434    C177.047,193.869,174.75,194.243,173.937,194.428z"/>
		<path fill="#F9F9F9" d="M176.16,196.003l-0.381-0.323c1.105-1.305,3.542-0.147,3.646-0.098l-0.218,0.45    C179.185,196.022,177.016,194.994,176.16,196.003z"/>
		<path fill="#F9F9F9" d="M176.623,197.635c-0.306-1.462,1.046-3.278,1.105-3.354l0.398,0.301c-0.012,0.017-1.273,1.711-1.015,2.951    L176.623,197.635z"/>
		<path fill="#2C9FE5" d="M170.937,195.2c0,0,0.983,0.844,1.228,0.941c0.245,0.098,2.263,0.147,2.97,0.213    c0.707,0.065,2.153,0.791,1.956,1.544c-0.196,0.754-2.694,1.953-4.532-0.345C170.721,195.257,170.841,195.674,170.937,195.2z"/>
	</g>
	<path fill="#F7B2AC" d="M151.917,108.708L149,110.5c0,0,3.208,3.208,3.833,3.833s1.542,6.161,2.542,5.917s2.667-5.958,2.792-6.958   s0.208-3,0.208-3L151.917,108.708z"/>
	<path fill="#CECCC8" d="M158.313,107.156c0,0-0.922,1.323-1.313,1.677l-0.016,1.135l1.672,0.359L158.313,107.156z"/>
	<g id="svg_x5F_whand">
		<path fill="#F0677E" d="M201.205,99.325c-1.188,0.01-8.817-0.479-8.817-0.479s-1.005-0.189-1.115,0.644    c-0.11,0.833-3.226,17.881-3.226,17.881s-0.344,1.005,0.724,1.044c1.067,0.039,8.717,0.473,8.717,0.473s0.922,0.315,1.133-0.823    c0.212-1.138,3.096-16.906,3.176-17.595C201.876,99.78,202.173,99.316,201.205,99.325z"/>
		<path fill="#F7B2AC" d="M180.75,130.521c-1.034,2.044-0.583,3.828,0.71,4.483l1.602,0.059c1.295,0.654,3.008-2.354,4.043-4.398    l9.624-16.107c1.034-2.045,0.548-3.016-0.047-3.964l-0.68-1.03c0,0-0.584-0.235-1.049,0.639s-1.748,3.497-1.878,3.013    c-0.13-0.483-0.093-1.153-0.632-0.725c-0.539,0.428-0.935,1.06-0.895,2.083s-0.027,2.43-0.297,3.114    c-1.514,3.828-8.061,9.687-8.563,10.375L180.75,130.521z"/>
	</g>
	<g id="svg_x5F_wfoot">
		<path fill="#F6ABBA" d="M192.843,167.981c0.724,2.275-0.861,4.809-3.539,5.66l0,0c-2.678,0.853-5.437-0.302-6.159-2.576    l-6.857-22.342c-0.722-2.274,0.862-4.809,3.54-5.662l0,0c2.678-0.851,5.437,0.303,6.163,2.577L192.843,167.981z"/>
		<g>
			<path fill="#F7B2AC" d="M191.5,170.75c0,0,1.898,3.636,2.253,3.882c0.355,0.245-0.784,3.106-1.416,3.396     c-0.632,0.29-2.655,0.778-3.105,0.648c-0.451-0.129-1.803-0.692-1.803-0.692s-0.148-2.203-0.41-3.89     c-0.143-0.92-0.363-1.906-0.363-1.906s0.532-0.809,2.094-1.436S191.5,170.75,191.5,170.75z"/>
			<path fill="#F4F4F4" d="M207.46,175.733l1.152,1.365c0,0,0.496,1.578-0.74,2.767c-1.236,1.189-4.108,3.127-5.538,3.165     c-1.429,0.039-7.589,0.027-8.212,0.212s-3.364,0.729-4.235-0.37c-0.871-1.099-0.907-1.989-0.907-1.989l6.778-0.635l7.338-0.784     L207.46,175.733z"/>
			<path fill="#5FB8FC" d="M186.935,176.648c0,0-0.115,3.701,2.885,5.697c0,0,1.251,0.199,3.435,0.017l0.196-0.014     c0,0,3.034-0.033,4.002-0.034c0.969,0,3.895-0.837,3.895-0.837l2.285-3.342l-0.301-3.642l-0.6-0.132c0,0-5.255-0.282-6.101-0.592     c-0.845-0.309-2.161-0.367-2.589-0.297c-0.429,0.069-0.895,0.267-0.895,0.267s0.992,1.213,0.317,1.875     c-0.851,0.834-2.746,2.805-4.378,2.429c-1.631-0.375-1.864-0.889-1.806-1.31c0.047-0.344-0.094-0.859-0.094-0.859     L186.935,176.648z"/>
			<path fill="#2C9FE5" d="M202.99,174.149c0,0-1.319,0.918-1.216,2.829c0.103,1.91,0.682,3.808-1.513,4.15     c-2.194,0.343-3.772,0.263-3.864,0.729c-0.092,0.468,0.042,0.396,0.042,0.396s7.858,1.117,11.593-4.958     C208.032,177.295,209.476,174.274,202.99,174.149z"/>
			<path fill="#F9F9F9" d="M200.29,177.374c-1.509-1.438-1.389-3.205-1.383-3.28l0.499,0.039c-0.001,0.016-0.102,1.61,1.229,2.879     L200.29,177.374z"/>
			<path fill="#F9F9F9" d="M198.323,177.513l-0.483-0.128c0.389-1.476,3.535-2.921,3.668-2.981l0.207,0.455     C200.864,175.246,198.596,176.478,198.323,177.513z"/>
			<path fill="#F9F9F9" d="M195.771,176.626c-0.533-1.085-1.38-2.665-1.388-2.681l0.44-0.236c0.009,0.016,0.86,1.603,1.397,2.696     L195.771,176.626z"/>
			<path fill="#F9F9F9" d="M193.744,176.805l-0.396-0.305c0.08-0.104,1.964-2.535,3.322-2.767l0.084,0.493     C195.785,174.391,194.252,176.144,193.744,176.805z"/>
			<path fill="#F9F9F9" d="M196.461,176.602l-0.5-0.006c0.021-1.709,2.636-2.371,2.748-2.398l0.119,0.485     C198.804,174.688,196.477,175.278,196.461,176.602z"/>
			<path fill="#F9F9F9" d="M197.858,177.564c-1.168-0.932-1.282-3.193-1.286-3.289l0.499-0.022c0.001,0.021,0.109,2.13,1.099,2.92     L197.858,177.564z"/>
			<path fill="#2C9FE5" d="M190.418,178.909c0,0,1.218,0.442,1.481,0.447c0.264,0.005,2.168-0.662,2.854-0.85     c0.685-0.188,2.293-0.021,2.376,0.753c0.083,0.775-1.83,2.779-4.362,1.279C190.236,179.039,190.496,179.387,190.418,178.909z"/>
		</g>
	</g>
	<g id="svg_x5F_whead">
		<path fill="#F7B2AC" d="M164.057,100.537c-1.358,3.319-4.45,4.4-9.697,4.347l1.079,1.151c-5.247-0.053-9.46-3.973-9.412-8.756    l0.092-9.116c0.048-4.783,4.34-8.617,9.587-8.564l0,0c3.358,0.034,8.276,1.119,10.089,3.602c1.019,1.396-0.162,3.666-0.179,5.387    L164.057,100.537z"/>
		<path fill="#FFFFFF" d="M163.679,98.784l-8.41-0.752c0,0,2.721,2.861,5.469,3.139C160.738,101.171,163.615,101.544,163.679,98.784    z"/>
		<path fill="#9B4129" d="M164.493,75.875c-6.785-7.451-18.768-0.974-21.009,0.85c-5.462,4.445-3.666,16.486-2.778,19.328    c0.076,0.242,0.139,0.549,0.193,0.904c-0.075,2.36-0.42,7.156-1.965,9.537c-2.095,3.229-4.501,6.268-2.576,7.537    c1.925,1.269,1.737,1.268,1.54,2.266c-0.197,0.998-0.022,2.187,2.037,2.583c1.877,0.361,0.001,2.96,1.173,3.008    c-0.597,1.807,0.896,2.514,0.896,2.514c0.985,1.51,3.197,0.085,3.197,0.085c1.993,3.74,6.524,2.898,6.524,2.898    c3.431-1.414,1.299-4.872,1.299-4.872c1.517-1.651-1.202-4.766-1.202-4.766c-0.995-0.569-1.203-1.572-1.105-2.008    s1.14-1.488,1.14-1.488c1.502-0.235,1.053-5.24,1.053-5.24l-1.081-4.344c0,0-7.678-8.01-7.762-11.245s1.253-4.352,2.142-4.478    c0.889-0.125,1.484,1.232,2.225,2.24c0.74,1.007,1.889-3.674,3.029-3.933c4.469-1.012,8.63-2.544,10.694-2.648    c2.063-0.104,1.311,0.843,1.823,1.019c0.513,0.175,2.692,1.652,2.692,1.652c0.095,0.243,1.132,0.419,1.675-2.921    C168.812,81.48,168.118,79.855,164.493,75.875z"/>
		<path fill="#9B4129" d="M167.854,85.479c0,0,0.521,2.25-4.104,2.271c-4.511,0.021-6.875,2-7.188,2.375s-6.063,6.438-7.75,2.5    s-0.125-2.938-0.125-2.938L153,84.5l9.75-1.5L167.854,85.479z"/>
	</g>
</g>
<g id="svg_x5F_man">
	<linearGradient id="SVGID_5_" gradientUnits="userSpaceOnUse" x1="474.6768" y1="187.2559" x2="447.2206" y2="192.612">
		<stop offset="0" style="stop-color:#000000;stop-opacity:0"/>
		<stop offset="1" style="stop-color:#000000;stop-opacity:0.31"/>
	</linearGradient>
	<path fill="url(#SVGID_5_)" d="M459.667,182.333c0,0,12.167-0.917,15.417,4.833s-1.415,8.292-8.666,11.75   c-6.683,3.188-18.042,0.792-22.917-1.083s-22.751-2.583-21.126-4.208s16.5-10.5,20.625-10.625s11.958-1.25,11.958-1.25   L459.667,182.333z"/>
	<g>
		<path fill="#44321F" d="M432.264,228.754l0.021,0.376l0.824,1.179c0,0,3.436,0.795,6.471-2.365c0,0,3.133-3.192,3.471-5.047    c0,0,2.34-4.997,2.419-5.358s1.168-1.745,0.769-2.686c-0.4-0.938-0.347-0.637-0.347-0.637l-0.634,0.301L432.264,228.754z"/>
		<path fill="#9B5F2B" d="M437.17,216.672c0.871,0.197,1.896-3.641,2.184-4.428c0.286-0.787,1.114-1.895,2.573-1.891    c1.457,0.004,3.021,2.426,3.585,3.52c0.565,1.094,0.474,1.528-0.103,2.088s-2.506,4.438-3.292,6.788    c-0.785,2.349-2.776,4.501-6.726,6.233c-3.948,1.732-3.207-1.555-3.207-1.555c0.333-0.702,2.861-4.85,2.562-6.061    c-0.301-1.21,0.46-3.657,0.46-3.657S435.885,216.38,437.17,216.672z"/>
		<path fill="#7F4404" d="M440.404,218.022c0,0-1.205-1.107-2.896-1.233c0,0,0.673-0.836,1.225-1.845c0,0,1.008-1.838,1.184-2.675    c0.177-0.838,2.861-2.625,3.189-0.248S441.133,217.189,440.404,218.022z"/>
		<path fill="#FFFFFF" d="M434.701,213.546l2.506,3.428l3.714,1.776l2.256-3.88l0.19-2.664c0,0-3.574-3.129-4.068-3.953    C438.807,207.43,434.701,213.546,434.701,213.546z"/>
		<path fill="#9B5F2B" d="M442.899,211.348c0,0,0.82,1.165-0.159,3.027c0,0-1.901,3.98-2.336,3.647c0,0-1.222-1.233-3.444-1.383    l-0.079,0.986c0,0,4.106,2.511,4.238,2.535c0.13,0.025,3.332-6.218,3.332-6.218s-0.891-2.339-0.976-2.363    C443.392,211.554,442.899,211.348,442.899,211.348z"/>
	</g>
	<path fill="#BCD2FF" d="M431.56,213.078l0.099,0.739c0,0,3.189,2.4,4.263,3.285c0.757,0.624,1.32,0.291,2.134-0.129   c0.815-0.42,2.88-2.579,3.182-3.007c0.853-1.208,1.593-2.732,1.598-3.803c0.003-0.802,0.39-0.941-0.339-1.674   c-0.544-0.547-2.736-2.622-2.736-2.622l-0.954-0.25l0.258,0.466c0,0-2.177,4.261-3.327,5.272c-1.149,1.011-3.358,1.623-3.358,1.623   L431.56,213.078z"/>
	<path fill="#DDA29F" d="M443.742,143.143c0.056,1.432-0.547,0.973-2.563,1.051l0,0c-2.018,0.078-2.334,0.637-2.39-0.794   l-0.364-4.764c-0.056-1.432,0.396-2.659,2.412-2.737l0,0c2.019-0.078,2.662,0.971,2.717,2.402L443.742,143.143z"/>
	<path fill="#4875B7" d="M409.875,200.042c-1.125,0.25-3.833-0.208-6.124-5.006c-1.796-3.762,0,0,0,0   c-0.584-2.785,0.518-4.704,6.404-5.724s31.115-5.408,31.115-5.408c3.77-0.304,5.927,4.741,6.157,7.597l0,0   c0.229,2.857-2.42,5.278-6.11,6.37C437.627,198.962,409.875,200.042,409.875,200.042z"/>
	<path fill="#4875B7" d="M435.171,205.112c2.124,1.19,2.574,2.794,1.176,5.294l0,0c-1.401,2.501-4.258,3.564-6.38,2.375   l-20.981-12.432c-2.124-1.189-2.71-4.179-1.31-6.68l0,0c1.401-2.501,4.257-3.563,6.381-2.375c0,0,12.576,7.224,14.303,8.343   C430.087,200.757,435.171,205.112,435.171,205.112z"/>
	<path fill="#5281D2" d="M444.737,212.968c-1.511,2.434-4.678,4.542-7.112,3.032l-1.25-0.656c-1.563-2.188-2.438-4.094-1-7.906   l7.709-21.49c1.513-2.434,12.272-7.163,14.707-5.652l0.621,3.072c2.025,2.451,0.938,6.965-0.572,9.399L444.737,212.968z"/>
	<path fill="#DD6558" d="M424.708,169.792c-0.769,1.938-3.412,2.679-5.478,1.86l-0.241-0.095c-2.065-0.819-3.116-3.053-2.347-4.989   l8.343-21.038c0.769-1.937,4.219-3.928,6.284-3.109l1.226,1.203c2.063,0.82,0.976,3.029,0.208,4.966L424.708,169.792z"/>
	<path fill="#DD6558" d="M410.836,180.629c-1.183,0.868-3.203,0.124-4.521-1.665l-0.154-0.21c-1.315-1.789-1.427-3.942-0.248-4.811   l12.823-9.437c1.182-0.869,3.204-0.124,4.521,1.666l0.153,0.208c1.316,1.79,1.429,3.942,0.247,4.812L410.836,180.629z"/>
	<path fill="#FE705C" d="M458.412,182.368c0,1.148-0.264,1.998-0.796,2.624c-1.199,1.412-5.272,2.426-9.241,2.426l-6.667,0.25   l-8.639,1.192c-2.662,0.424-3.329-1.132-4.194-4.984l-3.25-31c0-2.656,0.169-7.279,1.313-8.938c1.325-1.92,2.271-1.938,5.346-1.938   h1.154l7.656,1.297L447.61,142c0.172,0,0.344,0.002,0.515,0.006c5.522,0.141,10.375,2.56,10.375,8.119L458.412,182.368z"/>
	<path fill="#FF897D" d="M452.25,145.438l-10.056,21.853c-0.864,2.044,0.088,4.404,2.134,5.271l0.239,0.101   c2.045,0.867,4.332,0.364,5.2-1.681c0,0,4.74-4.832,7.357-10.419c1.887-4.026,2.527-9.085,2.501-10.604   c-0.041-2.388,1.041-3.792-3.626-6.036C456,143.922,454.126,142.75,452.25,145.438z"/>
	<path fill="#F7B2AC" d="M409,177.5c0,1.933-1.567,3.5-3.5,3.5h-11c-1.933,0-3.5-1.567-3.5-3.5l0,0c0-1.933,1.567-3.5,3.5-3.5h11   C407.433,174,409,175.567,409,177.5L409,177.5z"/>
	<path fill="#FFFFFF" d="M433.5,142l1.083,4.917l0.834,4.417l2.25,6.75l1.458,4.167l2.042-3.417l1.521-2.583l1.125-2.969l1.813-4.5   l1.625-4.844l0.75-2C448,141.938,438.625,142.906,433.5,142z"/>
	<path fill="#FFDFB7" d="M447.61,142c0,0-4.276,14.583-7.61,18.417c0,0-2,2.917-2,3.25s2.666,15.167,2.666,16.583   s1.042,7.417,1.042,7.417l0.708-0.083l-1.25-7.583c0,0-1.75-12.25-2-12.417s-0.583-3.667-0.583-3.667s3.333-5.083,3.5-5.917   s3.752-8.958,4.168-10.792s1.833-5.125,1.833-5.125L447.61,142z"/>
	<path fill="#FFDFB7" d="M434,142c0,0,1.313,10,2.313,11.438s2.813,8.813,2.813,8.813l-0.188,1.063l-2.875-9.5l-1.313-4.313   l-1.25-7.5H434z"/>
	<path fill="#F7B2AC" d="M422.69,189h11.373c1.949,0,3.506-1.681,3.506-3.63l0,0c0-1.95-3.499-2.992-5.448-2.992l-7.764,0.955   c-2.108,0.466-4.217,2.281-4.217,4.23C420.141,187.564,421.073,189,422.69,189z"/>
	<path fill="#FF897D" d="M438.074,184.396c-1.052,1.195-2.249,0.783-3.915,0.231l-2.901-0.643c-1.67-1.467-2.095-2.298-1.044-3.493   l12.036-12.553c1.054-1.196,2.64-1.417,4.308,0.05l0.194,0.171c1.669,1.467,3.36,2.646,2.311,3.841L438.074,184.396z"/>
	<polygon fill="#C2EDFF" points="426.428,189 382.887,189 374.25,153.688 417.542,153  "/>
	<polygon fill="#80A9B7" points="427.141,189 425.769,189 417.542,153.711 418.219,152.922  "/>
	<polygon fill="#8FDEF9" points="447,192 405.063,191.719 383.531,191.375 383,189 447,189  "/>
	<path fill="#FFFFFF" d="M433.006,133.667c0,0,3.774,3.914,8.924-0.141"/>
	<polygon fill="#D7F0F9" points="418.219,152.922 417.542,153.711 374.25,153.688 374.563,153.188  "/>
	<path fill="#FFDFB7" d="M456.375,174.813c0,0,0.313,1.25,0,1.313s-6.313,1.125-6.938,0.875s-0.125-0.688-0.125-0.688   s6.5-0.75,6.5-1.125S456.375,174.813,456.375,174.813z"/>
	<path fill="#DDA29F" d="M438.656,141.406c0,0-0.141,0.656-0.843,1.135c-0.086,0.059,0.048,1.11,0.827,1.255   c0.922,0.172,4.079,0.284,5.131-0.568c0.572-0.463,0.459-0.667,0.479-1s-0.354-0.229-0.604-1.208S438.656,141.406,438.656,141.406z   "/>
	<g id="svg_x5F_mfoot">
		<path fill="#5281D2" d="M446.736,233.665c0.133,2.431-2.077,4.527-4.938,4.684l0,0c-2.862,0.157-5.29-1.687-5.422-4.116    l-1.064-23.802c-0.132-2.43,2.078-4.528,4.94-4.685l0,0c2.86-0.157,5.288,1.686,5.423,4.116L446.736,233.665z"/>
		<g>
			<path fill="#44321F" d="M428.73,251.189l-0.185,0.329l0.06,1.437c0,0,2.468,2.519,6.728,1.49c0,0,4.357-1.004,5.641-2.386     c0,0,4.661-2.952,4.923-3.214c0.261-0.263,1.923-0.843,2.093-1.85c0.167-1.006,0.051-0.724,0.051-0.724l-0.696-0.088     L428.73,251.189z"/>
			<path fill="#9B5F2B" d="M439.367,243.646c0.628,0.635,3.558-2.047,4.224-2.557c0.665-0.509,1.959-0.998,3.186-0.209     c1.227,0.788,1.24,3.67,1.128,4.896s-0.423,1.543-1.21,1.705s-4.501,2.392-6.428,3.949c-1.926,1.558-4.763,2.3-9.022,1.634     c-4.26-0.665-1.866-3.036-1.866-3.036c0.658-0.413,5.021-2.548,5.42-3.73s2.355-2.834,2.355-2.834     S438.441,242.708,439.367,243.646z"/>
			<path fill="#7F4404" d="M441.366,246.524c0,0-0.419-1.582-1.777-2.598c0,0,1.018-0.343,2.025-0.896c0,0,1.838-1.007,2.438-1.618     c0.6-0.611,3.823-0.672,2.821,1.507C445.87,245.099,442.429,246.215,441.366,246.524z"/>
			<path fill="#FFFFFF" d="M438.969,239.683l0.267,4.238l2.175,3.496l3.989-2.056l1.594-2.143c0,0-1.328-4.561-1.302-5.521     C445.72,236.737,438.969,239.683,438.969,239.683z"/>
			<path fill="#9B5F2B" d="M447.062,242.242c0,0,0.064,1.423-1.763,2.466c0,0-3.745,2.331-3.933,1.816c0,0-0.365-1.697-2.157-3.019     l-0.599,0.789c0,0,2.11,4.326,2.208,4.417c0.097,0.091,6.155-3.448,6.155-3.448s0.508-2.451,0.449-2.517     C447.365,242.681,447.062,242.242,447.062,242.242z"/>
		</g>
		<path fill="#BCD2FF" d="M436.352,233.692l-0.414,0.62c0,0,0.81,3.908,1.031,5.281c0.156,0.969,0.8,1.09,1.688,1.313    c0.89,0.223,3.865-0.034,4.375-0.156c1.438-0.344,3-1,3.711-1.801c0.532-0.6,0.914-0.449,0.852-1.48    c-0.047-0.771-0.323-3.776-0.323-3.776l-0.552-0.817l-0.114,0.52c0,0-4.448,1.761-5.979,1.761s-3.594-1-3.594-1L436.352,233.692z"/>
	</g>
	<g id="svg_x5F_mhead">
		<path fill="#F7B2AC" d="M451.476,127.568c0.342,5.916-4.177,10.989-10.093,11.332l-0.539,0.031    c-5.915,0.342-10.989-4.176-11.332-10.092l-0.608-10.523c-0.343-5.916,4.177-10.989,10.093-11.331l0.538-0.032    c5.916-0.342,10.99,4.176,11.333,10.092L451.476,127.568z"/>
		<path fill="#F7B2AC" d="M454.271,123.963c0.07,1.195-0.844,2.22-2.039,2.289l-0.663,0.039c-1.195,0.069-2.221-0.843-2.289-2.039    l-0.27-4.657c-0.069-1.195,0.844-2.22,2.039-2.289l0.663-0.039c1.195-0.069,2.221,0.843,2.29,2.039L454.271,123.963z"/>
		<g>
			<path fill="#5B4240" d="M444.853,127.742c-0.928,0.612,0.345,2.133-4.279,1.655c0,0-4.237-2.727-7.862,0.613     c0,0-2.479,1.521-3.146-0.256c0,0-0.889,0.976,1.296,5.677c0,0,1.43,3.023,4.968,3.038c0,0,4.638,0.72,6.631,0.455     c6.119-0.817,7.88-5.896,7.476-8.407c-0.439-2.725-1.715-5.738-1.784-6.36l-3.002-0.253     C445.224,125.917,445.176,127.53,444.853,127.742z"/>
			<path fill="#706A69" d="M448.607,121.224c0.222-0.561,0.452-1.116,0.567-1.303c0.263-0.425,1.528-2.673,1.528-2.673l0.068-2.629     l-0.385-0.009c0.048-0.122,0.094-0.248,0.143-0.36c1.311-3.051-5.076-1.23-5.076-1.23l-1.014,1.917c0,0,0.571,5.19,0.71,8.968     l3.002,0.253c-0.001-0.01-0.005-0.024-0.006-0.033C448.133,123.899,448.31,122.73,448.607,121.224z"/>
		</g>
		<path fill="#5B4240" d="M452.477,109.387c0.275,4.761-1.337,6.917-5.031,6.877l-14.986-0.074c-3.108,0.18-5.289-1.504-6.116-2.496    c-0.828-0.992-1.529-2.296-2.332-3.719c-0.805-1.422-0.901-7.639,0.057-8.716c0.96-1.077,6.188,3.767,7.74,3.677l11.942-2.499    C446.858,102.258,452.614,103.009,452.477,109.387L452.477,109.387z"/>
	</g>
</g>
</svg>